<svg width="428" height="71" viewBox="0 0 428 71" fill="none" xmlns="http://www.w3.org/2000/svg">
<path d="M0.378058 61C0.378058 66.5228 4.85521 71 10.3781 71H417.217C422.74 71 427.217 66.5228 427.217 61V10C427.217 4.47715 422.74 0 417.217 0H10.378C4.8552 0 0.378058 4.47715 0.378058 10V61Z" fill="#686868"/>
<rect width="68.9509" height="26" rx="5" transform="matrix(-1 0 0 1 330.904 15)" fill="#E5E5E5"/>
<rect width="70.0453" height="26" rx="5" transform="matrix(-1 0 0 1 255.387 15)" fill="#E5E5E5"/>
<rect width="70.0454" height="26" rx="5" transform="matrix(-1 0 0 1 178.774 15)" fill="#E5E5E5"/>
<rect width="68.951" height="26" rx="5" transform="matrix(-1 0 0 1 102.163 15)" fill="#E5E5E5"/>
<path d="M376.036 51.576C383.524 51.576 388.612 46.584 388.612 40.536C388.612 33.432 382.948 29.736 377.284 29.736C374.836 29.736 372.58 30.36 370.948 31.224H370.852L371.38 21.816H386.356L387.94 17.4H367.348L366.388 35.304L370.468 35.736C372.052 34.728 374.212 34.056 376.372 34.056C380.932 34.056 383.524 36.936 383.524 40.488C383.524 44.184 380.596 47.112 376.036 47.112C372.436 47.112 369.748 45.864 367.444 43.752L364.132 47.064C366.868 49.752 370.756 51.576 376.036 51.576Z" fill="white"/>
</svg>
