<svg width="428" height="71" viewBox="0 0 428 71" fill="none" xmlns="http://www.w3.org/2000/svg">
<path d="M427.811 61C427.811 66.5228 423.334 71 417.811 71H10.9726C5.44979 71 0.972656 66.5228 0.972656 61V10C0.972656 4.47715 5.44981 0 10.9727 0H417.811C423.334 0 427.811 4.47715 427.811 10V61Z" fill="#51A447"/>
<rect x="97.2842" y="15" width="68.9512" height="26" rx="5" fill="#E5E5E5"/>
<rect x="172.802" y="15" width="70.0457" height="26" rx="5" fill="#E5E5E5"/>
<rect x="249.414" y="15" width="70.0454" height="26" rx="5" fill="#E5E5E5"/>
<rect x="326.026" y="15" width="68.9507" height="26" rx="5" fill="#E5E5E5"/>
<path d="M46.6706 51.576C53.6786 51.576 59.0066 46.776 59.0066 40.68C59.0066 35.112 55.2146 31.032 49.3106 30.408V30.312L58.3346 21.288V17.4H36.9266V21.816H52.2866L42.9746 31.32V34.536C43.8386 34.344 44.7986 34.296 45.6626 34.296C50.2226 34.296 53.9666 36.216 53.9666 40.584C53.9666 44.664 50.6546 47.16 46.5746 47.16C43.1666 47.16 40.4786 45.912 38.1746 43.8L34.9106 47.064C37.6946 49.848 41.8706 51.576 46.6706 51.576Z" fill="white"/>
</svg>
