<svg width="428" height="71" viewBox="0 0 428 71" fill="none" xmlns="http://www.w3.org/2000/svg">
<path d="M0.783332 61C0.783332 66.5228 5.26048 71 10.7833 71H417.622C423.145 71 427.622 66.5228 427.622 61V10C427.622 4.47715 423.145 0 417.622 0H10.7833C5.26047 0 0.783332 4.47715 0.783332 10V61Z" fill="#51A447"/>
<rect width="68.9508" height="26" rx="5" transform="matrix(-1 0 0 1 331.31 15)" fill="#E5E5E5"/>
<rect width="70.0453" height="26" rx="5" transform="matrix(-1 0 0 1 255.792 15)" fill="#E5E5E5"/>
<rect width="70.0454" height="26" rx="5" transform="matrix(-1 0 0 1 179.18 15)" fill="#E5E5E5"/>
<rect width="68.9507" height="26" rx="5" transform="matrix(-1 0 0 1 102.567 15)" fill="#E5E5E5"/>
<path d="M380.617 51H385.417V43.464H389.449L390.985 39.288H385.417V29.16H380.617V39.288H369.577V39.192L379.081 17.4H373.993L364.441 39.864V43.464H380.617V51Z" fill="white"/>
</svg>
