<svg width="428" height="71" viewBox="0 0 428 71" fill="none" xmlns="http://www.w3.org/2000/svg">
<path d="M427.433 61C427.433 66.5228 422.956 71 417.433 71H10.5942C5.07138 71 0.594238 66.5228 0.594238 61V10C0.594238 4.47715 5.07139 0 10.5942 0H417.433C422.956 0 427.433 4.47715 427.433 10V61Z" fill="#686868"/>
<rect x="96.9067" y="15" width="68.9508" height="26" rx="5" fill="#E5E5E5"/>
<rect x="172.424" y="15" width="70.0453" height="26" rx="5" fill="#E5E5E5"/>
<rect x="249.037" y="15" width="70.0453" height="26" rx="5" fill="#E5E5E5"/>
<rect x="325.648" y="15" width="68.951" height="26" rx="5" fill="#E5E5E5"/>
<path d="M36.8362 51H42.4042L56.4202 21.096V17.4H34.1002V21.816H50.9482L36.8362 51Z" fill="white"/>
</svg>
