<svg width="428" height="71" viewBox="0 0 428 71" fill="none" xmlns="http://www.w3.org/2000/svg">
<path d="M427.217 61C427.217 66.5228 422.74 71 417.217 71H10.3779C4.85507 71 0.37793 66.5228 0.37793 61V10C0.37793 4.47715 4.85508 0 10.3779 0H417.217C422.74 0 427.217 4.47715 427.217 10V61Z" fill="#686868"/>
<rect x="96.6904" y="15" width="68.9508" height="26" rx="5" fill="#E5E5E5"/>
<rect x="172.208" y="15" width="70.0453" height="26" rx="5" fill="#E5E5E5"/>
<rect x="248.82" y="15" width="70.0454" height="26" rx="5" fill="#E5E5E5"/>
<rect x="325.433" y="15" width="68.9507" height="26" rx="5" fill="#E5E5E5"/>
<path d="M50.7799 51H55.5799V43.464H59.6119L61.1479 39.288H55.5799V29.16H50.7799V39.288H39.7399V39.192L49.2439 17.4H44.1559L34.6039 39.864V43.464H50.7799V51Z" fill="white"/>
</svg>
