<svg width="428" height="71" viewBox="0 0 428 71" fill="none" xmlns="http://www.w3.org/2000/svg">
<path d="M427.028 61C427.028 66.5228 422.551 71 417.028 71H10.189C4.66611 71 0.188965 66.5228 0.188965 61V10C0.188965 4.47715 4.66612 0 10.189 0H417.028C422.551 0 427.028 4.47715 427.028 10V61Z" fill="#686868"/>
<rect x="96.5015" y="15" width="68.9509" height="26" rx="5" fill="#E5E5E5"/>
<rect x="172.019" y="15" width="70.0455" height="26" rx="5" fill="#E5E5E5"/>
<rect x="248.631" y="15" width="70.0453" height="26" rx="5" fill="#E5E5E5"/>
<rect x="325.243" y="15" width="68.951" height="26" rx="5" fill="#E5E5E5"/>
<path d="M47.279 51.576C54.671 51.576 59.4709 46.2 59.4709 40.104C59.4709 33.384 54.047 29.16 48.5749 29.16C46.4149 29.16 44.351 29.688 42.6229 30.792L42.5269 30.696L53.0869 17.4L47.807 16.824L42.8629 23.256C37.7749 29.88 35.1829 34.584 35.1829 39.624C35.1829 46.296 40.1269 51.576 47.279 51.576ZM47.3269 47.304C43.0069 47.304 40.1269 43.992 40.1269 40.248C40.1269 36.456 43.0069 33.192 47.3269 33.192C51.6469 33.192 54.5269 36.456 54.5269 40.248C54.5269 43.992 51.6469 47.304 47.3269 47.304Z" fill="white"/>
</svg>
