<svg width="427" height="71" viewBox="0 0 427 71" fill="none" xmlns="http://www.w3.org/2000/svg">
<path d="M421.232 57.1542C423.976 63.7411 419.136 71 412.001 71H10.1611C4.63828 71 0.161133 66.5228 0.161133 61V10C0.161133 4.47715 4.63829 0 10.1611 0H390.753C394.79 0 398.432 2.42756 399.984 6.15424L421.232 57.1542Z" fill="#51A447"/>
<rect x="96.4736" y="15" width="68.9512" height="26" rx="5" fill="#E5E5E5"/>
<rect x="171.991" y="15" width="70.0457" height="26" rx="5" fill="#E5E5E5"/>
<rect x="248.604" y="15" width="70.0452" height="26" rx="5" fill="#E5E5E5"/>
<path d="M325.216 20C325.216 17.2386 327.454 15 330.216 15H379.902C381.914 15 383.73 16.2058 384.51 18.0601L391.245 34.0601C392.632 37.3558 390.213 41 386.637 41H330.216C327.454 41 325.216 38.7614 325.216 36V20Z" fill="#E5E5E5"/>
<path d="M34.9631 51H52.6751L54.4991 46.584H46.8671V17.4H35.4911V21.816H42.0671V46.584H34.9631V51Z" fill="white"/>
</svg>
