<svg width="428" height="71" viewBox="0 0 428 71" fill="none" xmlns="http://www.w3.org/2000/svg">
<path d="M0.18896 61C0.18896 66.5228 4.66611 71 10.189 71H417.027C422.55 71 427.027 66.5228 427.027 61V10C427.027 4.47715 422.55 0 417.027 0H10.1889C4.66609 0 0.18896 4.47715 0.18896 10V61Z" fill="#686868"/>
<rect width="68.9512" height="26" rx="5" transform="matrix(-1 0 0 1 330.716 15)" fill="#E5E5E5"/>
<rect width="70.0457" height="26" rx="5" transform="matrix(-1 0 0 1 255.198 15)" fill="#E5E5E5"/>
<rect width="70.0454" height="26" rx="5" transform="matrix(-1 0 0 1 178.586 15)" fill="#E5E5E5"/>
<rect width="68.9507" height="26" rx="5" transform="matrix(-1 0 0 1 101.974 15)" fill="#E5E5E5"/>
<path d="M376.413 51.576C383.421 51.576 388.749 46.776 388.749 40.68C388.749 35.112 384.957 31.032 379.053 30.408V30.312L388.077 21.288V17.4H366.669V21.816H382.029L372.717 31.32V34.536C373.581 34.344 374.541 34.296 375.405 34.296C379.965 34.296 383.709 36.216 383.709 40.584C383.709 44.664 380.397 47.16 376.317 47.16C372.909 47.16 370.221 45.912 367.917 43.8L364.653 47.064C367.437 49.848 371.613 51.576 376.413 51.576Z" fill="white"/>
</svg>
