<svg width="427" height="71" viewBox="0 0 427 71" fill="none" xmlns="http://www.w3.org/2000/svg">
<path d="M5.76839 57.1542C3.02421 63.7411 7.86373 71 14.9993 71H416.839C422.362 71 426.839 66.5228 426.839 61V10C426.839 4.47715 422.362 0 416.839 0H36.2468C32.2096 0 28.5684 2.42756 27.0158 6.15424L5.76839 57.1542Z" fill="#686868"/>
<rect width="68.9512" height="26" rx="5" transform="matrix(-1 0 0 1 330.526 15)" fill="#E5E5E5"/>
<rect width="70.0457" height="26" rx="5" transform="matrix(-1 0 0 1 255.009 15)" fill="#E5E5E5"/>
<rect width="70.0452" height="26" rx="5" transform="matrix(-1 0 0 1 178.396 15)" fill="#E5E5E5"/>
<path d="M101.784 20C101.784 17.2386 99.5456 15 96.7842 15H47.0983C45.0864 15 43.2705 16.2058 42.4899 18.0601L35.7548 34.0601C34.3675 37.3558 36.7875 41 40.3631 41H96.7842C99.5456 41 101.784 38.7614 101.784 36V20Z" fill="#E5E5E5"/>
<path d="M371.895 51H389.607L391.431 46.584H383.799V17.4H372.423V21.816H378.999V46.584H371.895V51Z" fill="white"/>
</svg>
