<svg width="428" height="71" viewBox="0 0 428 71" fill="none" xmlns="http://www.w3.org/2000/svg">
<path d="M427.622 61C427.622 66.5228 423.145 71 417.622 71H10.7832C5.26034 71 0.783203 66.5228 0.783203 61V10C0.783203 4.47715 5.26036 0 10.7832 0H417.622C423.145 0 427.622 4.47715 427.622 10V61Z" fill="#51A447"/>
<rect x="97.0957" y="15" width="68.9509" height="26" rx="5" fill="#E5E5E5"/>
<rect x="172.613" y="15" width="70.0453" height="26" rx="5" fill="#E5E5E5"/>
<rect x="249.226" y="15" width="70.0454" height="26" rx="5" fill="#E5E5E5"/>
<rect x="325.837" y="15" width="68.951" height="26" rx="5" fill="#E5E5E5"/>
<path d="M47.0092 51.576C54.4972 51.576 59.5852 46.584 59.5852 40.536C59.5852 33.432 53.9212 29.736 48.2572 29.736C45.8092 29.736 43.5532 30.36 41.9212 31.224H41.8252L42.3532 21.816H57.3292L58.9132 17.4H38.3212L37.3612 35.304L41.4412 35.736C43.0252 34.728 45.1852 34.056 47.3452 34.056C51.9052 34.056 54.4972 36.936 54.4972 40.488C54.4972 44.184 51.5692 47.112 47.0092 47.112C43.4092 47.112 40.7212 45.864 38.4172 43.752L35.1052 47.064C37.8412 49.752 41.7292 51.576 47.0092 51.576Z" fill="white"/>
</svg>
