<svg width="428" height="71" viewBox="0 0 428 71" fill="none" xmlns="http://www.w3.org/2000/svg">
<path d="M0.594473 61C0.594473 66.5228 5.07163 71 10.5945 71H417.434C422.956 71 427.434 66.5228 427.434 61V10C427.434 4.47715 422.956 0 417.434 0H10.5945C5.07162 0 0.594473 4.47715 0.594473 10V61Z" fill="#686868"/>
<rect width="68.9509" height="26" rx="5" transform="matrix(-1 0 0 1 331.121 15)" fill="#E5E5E5"/>
<rect width="70.0457" height="26" rx="5" transform="matrix(-1 0 0 1 255.604 15)" fill="#E5E5E5"/>
<rect width="70.0452" height="26" rx="5" transform="matrix(-1 0 0 1 178.991 15)" fill="#E5E5E5"/>
<rect width="68.9507" height="26" rx="5" transform="matrix(-1 0 0 1 102.379 15)" fill="#E5E5E5"/>
<path d="M388.195 51L389.779 46.584H373.219V46.488L380.035 39.816C385.267 34.728 388.147 31.224 388.147 26.568C388.147 21.576 384.211 16.824 376.963 16.824C371.971 16.824 367.555 19.512 365.299 21.864L368.419 24.984C370.387 23.208 373.411 21.288 376.963 21.288C380.515 21.288 383.155 23.496 383.155 26.904C383.155 29.976 381.331 32.424 374.995 38.76L366.499 47.208V51H388.195Z" fill="white"/>
</svg>
