<svg width="427" height="71" viewBox="0 0 427 71" fill="none" xmlns="http://www.w3.org/2000/svg">
<path d="M0.161234 61C0.161234 66.5228 4.63839 71 10.1612 71H417C422.523 71 427 66.5228 427 61V10C427 4.47715 422.523 0 417 0H10.1612C4.63838 0 0.161234 4.47715 0.161234 10V61Z" fill="#686868"/>
<rect width="68.9509" height="26" rx="5" transform="matrix(-1 0 0 1 330.688 15)" fill="#E5E5E5"/>
<rect width="70.0453" height="26" rx="5" transform="matrix(-1 0 0 1 255.17 15)" fill="#E5E5E5"/>
<rect width="70.0453" height="26" rx="5" transform="matrix(-1 0 0 1 178.558 15)" fill="#E5E5E5"/>
<rect width="68.9509" height="26" rx="5" transform="matrix(-1 0 0 1 101.946 15)" fill="#E5E5E5"/>
<path d="M376.069 16.824C369.061 16.824 364.597 20.952 364.597 26.184C364.597 29.4 366.517 32.328 369.781 33.624V33.72C366.469 34.968 363.829 37.992 363.829 41.784C363.829 47.688 368.869 51.576 376.069 51.576C383.269 51.576 388.309 47.688 388.309 41.784C388.309 37.992 385.669 34.968 382.357 33.72V33.624C385.621 32.328 387.541 29.4 387.541 26.184C387.541 20.952 383.077 16.824 376.069 16.824ZM376.069 31.608C371.797 31.608 369.541 29.112 369.541 26.328C369.541 23.544 371.797 21.048 376.069 21.048C380.341 21.048 382.597 23.544 382.597 26.328C382.597 29.112 380.341 31.608 376.069 31.608ZM376.069 35.976C380.725 35.976 383.269 38.808 383.269 41.736C383.269 44.616 380.725 47.4 376.069 47.4C371.413 47.4 368.869 44.616 368.869 41.736C368.869 38.808 371.413 35.976 376.069 35.976Z" fill="white"/>
</svg>
