<svg width="428" height="71" viewBox="0 0 428 71" fill="none" xmlns="http://www.w3.org/2000/svg">
<path d="M0.566996 61C0.566996 66.5228 5.04415 71 10.567 71H417.406C422.929 71 427.406 66.5228 427.406 61V10C427.406 4.47715 422.929 0 417.406 0H10.567C5.04414 0 0.566996 4.47715 0.566996 10V61Z" fill="#686868"/>
<rect width="68.9508" height="26" rx="5" transform="matrix(-1 0 0 1 331.093 15)" fill="#E5E5E5"/>
<rect width="70.0453" height="26" rx="5" transform="matrix(-1 0 0 1 255.576 15)" fill="#E5E5E5"/>
<rect width="70.0453" height="26" rx="5" transform="matrix(-1 0 0 1 178.963 15)" fill="#E5E5E5"/>
<rect width="68.951" height="26" rx="5" transform="matrix(-1 0 0 1 102.352 15)" fill="#E5E5E5"/>
<path d="M371.713 51H377.281L391.297 21.096V17.4H368.977V21.816H385.825L371.713 51Z" fill="white"/>
</svg>
