<svg width="428" height="71" viewBox="0 0 428 71" fill="none" xmlns="http://www.w3.org/2000/svg">
<path d="M0.972242 61C0.972242 66.5228 5.44939 71 10.9722 71H417.811C423.334 71 427.811 66.5228 427.811 61V10C427.811 4.47715 423.334 0 417.811 0H10.9722C5.44938 0 0.972242 4.47715 0.972242 10V61Z" fill="#51A447"/>
<rect width="68.9509" height="26" rx="5" transform="matrix(-1 0 0 1 331.499 15)" fill="#E5E5E5"/>
<rect width="70.0455" height="26" rx="5" transform="matrix(-1 0 0 1 255.981 15)" fill="#E5E5E5"/>
<rect width="70.0453" height="26" rx="5" transform="matrix(-1 0 0 1 179.369 15)" fill="#E5E5E5"/>
<rect width="68.951" height="26" rx="5" transform="matrix(-1 0 0 1 102.757 15)" fill="#E5E5E5"/>
<path d="M378.589 51.576C385.981 51.576 390.781 46.2 390.781 40.104C390.781 33.384 385.357 29.16 379.885 29.16C377.725 29.16 375.661 29.688 373.933 30.792L373.837 30.696L384.397 17.4L379.117 16.824L374.173 23.256C369.085 29.88 366.493 34.584 366.493 39.624C366.493 46.296 371.437 51.576 378.589 51.576ZM378.637 47.304C374.317 47.304 371.437 43.992 371.437 40.248C371.437 36.456 374.317 33.192 378.637 33.192C382.957 33.192 385.837 36.456 385.837 40.248C385.837 43.992 382.957 47.304 378.637 47.304Z" fill="white"/>
</svg>
