<svg width="427" height="71" viewBox="0 0 427 71" fill="none" xmlns="http://www.w3.org/2000/svg">
<path d="M426.839 61C426.839 66.5228 422.362 71 416.839 71H9.99999C4.47714 71 0 66.5228 0 61V10C0 4.47715 4.47715 0 10 0H416.839C422.362 0 426.839 4.47715 426.839 10V61Z" fill="#686868"/>
<rect x="96.3125" y="15" width="68.9509" height="26" rx="5" fill="#E5E5E5"/>
<rect x="171.83" y="15" width="70.0453" height="26" rx="5" fill="#E5E5E5"/>
<rect x="248.442" y="15" width="70.0453" height="26" rx="5" fill="#E5E5E5"/>
<rect x="325.054" y="15" width="68.9509" height="26" rx="5" fill="#E5E5E5"/>
<path d="M47.5697 16.824C40.5617 16.824 36.0977 20.952 36.0977 26.184C36.0977 29.4 38.0177 32.328 41.2817 33.624V33.72C37.9697 34.968 35.3297 37.992 35.3297 41.784C35.3297 47.688 40.3697 51.576 47.5697 51.576C54.7697 51.576 59.8097 47.688 59.8097 41.784C59.8097 37.992 57.1697 34.968 53.8577 33.72V33.624C57.1217 32.328 59.0417 29.4 59.0417 26.184C59.0417 20.952 54.5777 16.824 47.5697 16.824ZM47.5697 31.608C43.2977 31.608 41.0417 29.112 41.0417 26.328C41.0417 23.544 43.2977 21.048 47.5697 21.048C51.8417 21.048 54.0977 23.544 54.0977 26.328C54.0977 29.112 51.8417 31.608 47.5697 31.608ZM47.5697 35.976C52.2257 35.976 54.7697 38.808 54.7697 41.736C54.7697 44.616 52.2257 47.4 47.5697 47.4C42.9137 47.4 40.3697 44.616 40.3697 41.736C40.3697 38.808 42.9137 35.976 47.5697 35.976Z" fill="white"/>
</svg>
