<svg width="428" height="71" viewBox="0 0 428 71" fill="none" xmlns="http://www.w3.org/2000/svg">
<path d="M427.406 61C427.406 66.5228 422.928 71 417.406 71H10.5664C5.04356 71 0.566406 66.5228 0.566406 61V10C0.566406 4.47715 5.04356 0 10.5664 0H417.406C422.928 0 427.406 4.47715 427.406 10V61Z" fill="#51A447"/>
<rect x="96.8789" y="15" width="68.9509" height="26" rx="5" fill="#E5E5E5"/>
<rect x="172.396" y="15" width="70.0457" height="26" rx="5" fill="#E5E5E5"/>
<rect x="249.009" y="15" width="70.0452" height="26" rx="5" fill="#E5E5E5"/>
<rect x="325.621" y="15" width="68.9507" height="26" rx="5" fill="#E5E5E5"/>
<path d="M57.6404 51L59.2244 46.584H42.6644V46.488L49.4804 39.816C54.7124 34.728 57.5924 31.224 57.5924 26.568C57.5924 21.576 53.6564 16.824 46.4084 16.824C41.4164 16.824 37.0004 19.512 34.7444 21.864L37.8644 24.984C39.8324 23.208 42.8564 21.288 46.4084 21.288C49.9604 21.288 52.6004 23.496 52.6004 26.904C52.6004 29.976 50.7764 32.424 44.4404 38.76L35.9444 47.208V51H57.6404Z" fill="white"/>
</svg>
